<mxfile host="Electron" agent="Mozilla/5.0 (Windows NT 10.0; Win64; x64) AppleWebKit/537.36 (KHTML, like Gecko) draw.io/26.2.2 Chrome/134.0.6998.178 Electron/35.1.2 Safari/537.36" version="26.2.2">
  <diagram name="Page-1" id="ysv1HBQoOpxpY_9lTiDi">
    <mxGraphModel dx="2068" dy="1201" grid="1" gridSize="10" guides="1" tooltips="1" connect="1" arrows="1" fold="1" page="1" pageScale="1" pageWidth="1169" pageHeight="827" math="0" shadow="0">
      <root>
        <mxCell id="0" />
        <mxCell id="IhUaoYFLJie-6JwiWho2-11" value="Functionality" parent="0" />
        <mxCell id="IhUaoYFLJie-6JwiWho2-35" value="Ingestion Time" style="rounded=0;whiteSpace=wrap;html=1;align=left;verticalAlign=top;" vertex="1" parent="IhUaoYFLJie-6JwiWho2-11">
          <mxGeometry x="10" y="50" width="1070" height="240" as="geometry" />
        </mxCell>
        <mxCell id="IhUaoYFLJie-6JwiWho2-12" value="Blob&lt;div&gt;Container&lt;/div&gt;" style="shape=cylinder3;whiteSpace=wrap;html=1;boundedLbl=1;backgroundOutline=1;size=15;" vertex="1" parent="IhUaoYFLJie-6JwiWho2-11">
          <mxGeometry x="20" y="148.18" width="80" height="74.41" as="geometry" />
        </mxCell>
        <mxCell id="IhUaoYFLJie-6JwiWho2-15" style="edgeStyle=orthogonalEdgeStyle;rounded=0;orthogonalLoop=1;jettySize=auto;html=1;exitX=1;exitY=0.5;exitDx=0;exitDy=0;exitPerimeter=0;entryX=0;entryY=0.5;entryDx=0;entryDy=0;" edge="1" parent="IhUaoYFLJie-6JwiWho2-11" source="IhUaoYFLJie-6JwiWho2-13" target="IhUaoYFLJie-6JwiWho2-14">
          <mxGeometry relative="1" as="geometry" />
        </mxCell>
        <mxCell id="IhUaoYFLJie-6JwiWho2-16" value="CDC" style="edgeLabel;html=1;align=center;verticalAlign=middle;resizable=0;points=[];" vertex="1" connectable="0" parent="IhUaoYFLJie-6JwiWho2-15">
          <mxGeometry x="-0.1818" relative="1" as="geometry">
            <mxPoint as="offset" />
          </mxGeometry>
        </mxCell>
        <mxCell id="IhUaoYFLJie-6JwiWho2-13" value="Graph DB" style="shape=cylinder3;whiteSpace=wrap;html=1;boundedLbl=1;backgroundOutline=1;size=15;" vertex="1" parent="IhUaoYFLJie-6JwiWho2-11">
          <mxGeometry x="190" y="141.18" width="150" height="88.82" as="geometry" />
        </mxCell>
        <mxCell id="IhUaoYFLJie-6JwiWho2-14" value="Code" style="shape=step;perimeter=stepPerimeter;whiteSpace=wrap;html=1;fixedSize=1;" vertex="1" parent="IhUaoYFLJie-6JwiWho2-11">
          <mxGeometry x="430" y="145" width="120" height="80" as="geometry" />
        </mxCell>
        <mxCell id="IhUaoYFLJie-6JwiWho2-29" style="edgeStyle=orthogonalEdgeStyle;rounded=0;orthogonalLoop=1;jettySize=auto;html=1;exitX=1;exitY=0;exitDx=0;exitDy=29.0075;exitPerimeter=0;entryX=0;entryY=0.25;entryDx=0;entryDy=0;" edge="1" parent="IhUaoYFLJie-6JwiWho2-11" source="IhUaoYFLJie-6JwiWho2-25" target="IhUaoYFLJie-6JwiWho2-26">
          <mxGeometry relative="1" as="geometry" />
        </mxCell>
        <mxCell id="IhUaoYFLJie-6JwiWho2-31" value="&lt;div&gt;calculate&lt;/div&gt;embeddings" style="edgeLabel;html=1;align=center;verticalAlign=middle;resizable=0;points=[];" vertex="1" connectable="0" parent="IhUaoYFLJie-6JwiWho2-29">
          <mxGeometry x="0.2129" y="1" relative="1" as="geometry">
            <mxPoint x="19" y="19" as="offset" />
          </mxGeometry>
        </mxCell>
        <mxCell id="IhUaoYFLJie-6JwiWho2-25" value="Vector Store" style="shape=cylinder3;whiteSpace=wrap;html=1;boundedLbl=1;backgroundOutline=1;size=15;" vertex="1" parent="IhUaoYFLJie-6JwiWho2-11">
          <mxGeometry x="640" y="141.97" width="150" height="86.03" as="geometry" />
        </mxCell>
        <mxCell id="IhUaoYFLJie-6JwiWho2-26" value="Embedding&amp;nbsp;&lt;div&gt;Model&lt;/div&gt;" style="shape=step;perimeter=stepPerimeter;whiteSpace=wrap;html=1;fixedSize=1;rotation=0;" vertex="1" parent="IhUaoYFLJie-6JwiWho2-11">
          <mxGeometry x="920" y="131.38" width="120" height="90" as="geometry" />
        </mxCell>
        <mxCell id="IhUaoYFLJie-6JwiWho2-27" style="edgeStyle=orthogonalEdgeStyle;rounded=0;orthogonalLoop=1;jettySize=auto;html=1;entryX=0.5;entryY=0;entryDx=0;entryDy=0;entryPerimeter=0;dashed=1;" edge="1" parent="IhUaoYFLJie-6JwiWho2-11" source="IhUaoYFLJie-6JwiWho2-25" target="IhUaoYFLJie-6JwiWho2-12">
          <mxGeometry relative="1" as="geometry">
            <Array as="points">
              <mxPoint x="715" y="110" />
              <mxPoint x="60" y="110" />
            </Array>
          </mxGeometry>
        </mxCell>
        <mxCell id="IhUaoYFLJie-6JwiWho2-28" value="index from blob" style="edgeLabel;html=1;align=center;verticalAlign=middle;resizable=0;points=[];" vertex="1" connectable="0" parent="IhUaoYFLJie-6JwiWho2-27">
          <mxGeometry x="-0.1815" relative="1" as="geometry">
            <mxPoint y="-11" as="offset" />
          </mxGeometry>
        </mxCell>
        <mxCell id="IhUaoYFLJie-6JwiWho2-30" style="edgeStyle=orthogonalEdgeStyle;rounded=0;orthogonalLoop=1;jettySize=auto;html=1;exitX=0;exitY=0.75;exitDx=0;exitDy=0;entryX=1;entryY=0.5;entryDx=0;entryDy=0;entryPerimeter=0;" edge="1" parent="IhUaoYFLJie-6JwiWho2-11" source="IhUaoYFLJie-6JwiWho2-26" target="IhUaoYFLJie-6JwiWho2-25">
          <mxGeometry relative="1" as="geometry" />
        </mxCell>
        <mxCell id="IhUaoYFLJie-6JwiWho2-32" style="edgeStyle=orthogonalEdgeStyle;rounded=0;orthogonalLoop=1;jettySize=auto;html=1;exitX=1;exitY=0.5;exitDx=0;exitDy=0;entryX=0;entryY=0.5;entryDx=0;entryDy=0;entryPerimeter=0;" edge="1" parent="IhUaoYFLJie-6JwiWho2-11" source="IhUaoYFLJie-6JwiWho2-14" target="IhUaoYFLJie-6JwiWho2-25">
          <mxGeometry relative="1" as="geometry" />
        </mxCell>
        <mxCell id="IhUaoYFLJie-6JwiWho2-33" value="&lt;div&gt;update&lt;/div&gt;index" style="edgeLabel;html=1;align=center;verticalAlign=middle;resizable=0;points=[];" vertex="1" connectable="0" parent="IhUaoYFLJie-6JwiWho2-32">
          <mxGeometry x="0.0259" y="-1" relative="1" as="geometry">
            <mxPoint as="offset" />
          </mxGeometry>
        </mxCell>
        <mxCell id="IhUaoYFLJie-6JwiWho2-34" style="edgeStyle=orthogonalEdgeStyle;rounded=0;orthogonalLoop=1;jettySize=auto;html=1;exitX=1;exitY=0.5;exitDx=0;exitDy=0;exitPerimeter=0;entryX=0;entryY=0.5;entryDx=0;entryDy=0;entryPerimeter=0;" edge="1" parent="IhUaoYFLJie-6JwiWho2-11" source="IhUaoYFLJie-6JwiWho2-12" target="IhUaoYFLJie-6JwiWho2-13">
          <mxGeometry relative="1" as="geometry" />
        </mxCell>
        <mxCell id="IhUaoYFLJie-6JwiWho2-36" value="Query Time" style="rounded=0;whiteSpace=wrap;html=1;align=left;verticalAlign=top;" vertex="1" parent="IhUaoYFLJie-6JwiWho2-11">
          <mxGeometry x="10" y="310" width="1070" height="240" as="geometry" />
        </mxCell>
        <mxCell id="IhUaoYFLJie-6JwiWho2-38" style="edgeStyle=orthogonalEdgeStyle;rounded=0;orthogonalLoop=1;jettySize=auto;html=1;exitX=1;exitY=0;exitDx=0;exitDy=29.705;exitPerimeter=0;entryX=0;entryY=0;entryDx=0;entryDy=29.0075;entryPerimeter=0;" edge="1" parent="IhUaoYFLJie-6JwiWho2-11" source="IhUaoYFLJie-6JwiWho2-40" target="IhUaoYFLJie-6JwiWho2-44">
          <mxGeometry relative="1" as="geometry">
            <mxPoint x="450" y="445" as="targetPoint" />
          </mxGeometry>
        </mxCell>
        <mxCell id="IhUaoYFLJie-6JwiWho2-39" value="Cypher Query&lt;div&gt;Similarity Search Top N&lt;/div&gt;" style="edgeLabel;html=1;align=center;verticalAlign=middle;resizable=0;points=[];" vertex="1" connectable="0" parent="IhUaoYFLJie-6JwiWho2-38">
          <mxGeometry x="-0.1818" relative="1" as="geometry">
            <mxPoint as="offset" />
          </mxGeometry>
        </mxCell>
        <mxCell id="IhUaoYFLJie-6JwiWho2-40" value="Graph DB" style="shape=cylinder3;whiteSpace=wrap;html=1;boundedLbl=1;backgroundOutline=1;size=15;" vertex="1" parent="IhUaoYFLJie-6JwiWho2-11">
          <mxGeometry x="190" y="401.18" width="150" height="88.82" as="geometry" />
        </mxCell>
        <mxCell id="IhUaoYFLJie-6JwiWho2-42" style="edgeStyle=orthogonalEdgeStyle;rounded=0;orthogonalLoop=1;jettySize=auto;html=1;exitX=1;exitY=0;exitDx=0;exitDy=29.0075;exitPerimeter=0;entryX=0;entryY=0.25;entryDx=0;entryDy=0;" edge="1" parent="IhUaoYFLJie-6JwiWho2-11" source="IhUaoYFLJie-6JwiWho2-44" target="IhUaoYFLJie-6JwiWho2-45">
          <mxGeometry relative="1" as="geometry" />
        </mxCell>
        <mxCell id="IhUaoYFLJie-6JwiWho2-43" value="&lt;div&gt;calculate query&lt;/div&gt;embedding" style="edgeLabel;html=1;align=center;verticalAlign=middle;resizable=0;points=[];" vertex="1" connectable="0" parent="IhUaoYFLJie-6JwiWho2-42">
          <mxGeometry x="0.2129" y="1" relative="1" as="geometry">
            <mxPoint x="29" y="21" as="offset" />
          </mxGeometry>
        </mxCell>
        <mxCell id="IhUaoYFLJie-6JwiWho2-44" value="Vector Store" style="shape=cylinder3;whiteSpace=wrap;html=1;boundedLbl=1;backgroundOutline=1;size=15;" vertex="1" parent="IhUaoYFLJie-6JwiWho2-11">
          <mxGeometry x="640" y="401.97" width="150" height="86.03" as="geometry" />
        </mxCell>
        <mxCell id="IhUaoYFLJie-6JwiWho2-45" value="Embedding&amp;nbsp;&lt;div&gt;Model&lt;/div&gt;" style="shape=step;perimeter=stepPerimeter;whiteSpace=wrap;html=1;fixedSize=1;rotation=0;" vertex="1" parent="IhUaoYFLJie-6JwiWho2-11">
          <mxGeometry x="920" y="391.38" width="120" height="90" as="geometry" />
        </mxCell>
        <mxCell id="IhUaoYFLJie-6JwiWho2-48" style="edgeStyle=orthogonalEdgeStyle;rounded=0;orthogonalLoop=1;jettySize=auto;html=1;exitX=0;exitY=0.75;exitDx=0;exitDy=0;entryX=1;entryY=0.5;entryDx=0;entryDy=0;entryPerimeter=0;" edge="1" parent="IhUaoYFLJie-6JwiWho2-11" source="IhUaoYFLJie-6JwiWho2-45" target="IhUaoYFLJie-6JwiWho2-44">
          <mxGeometry relative="1" as="geometry" />
        </mxCell>
        <mxCell id="IhUaoYFLJie-6JwiWho2-58" style="edgeStyle=orthogonalEdgeStyle;rounded=0;orthogonalLoop=1;jettySize=auto;html=1;entryX=1;entryY=0;entryDx=0;entryDy=59.114999999999995;entryPerimeter=0;" edge="1" parent="IhUaoYFLJie-6JwiWho2-11" target="IhUaoYFLJie-6JwiWho2-40">
          <mxGeometry relative="1" as="geometry">
            <mxPoint x="640" y="460" as="sourcePoint" />
          </mxGeometry>
        </mxCell>
        <mxCell id="1" value="Products" parent="0" />
        <mxCell id="IhUaoYFLJie-6JwiWho2-1" value="Azure Data Explorer" style="shape=image;verticalLabelPosition=bottom;verticalAlign=top;imageAspect=0;aspect=fixed;image=data:image/svg+xml,PHN2ZyB4bWxuczp4bGluaz0iaHR0cDovL3d3dy53My5vcmcvMTk5OS94bGluayIgeG1sbnM9Imh0dHA6Ly93d3cudzMub3JnLzIwMDAvc3ZnIiBkYXRhLXR5cGU9IjEiIGlkPSJGeFN5bWJvbDAtMGFiIiByb2xlPSJwcmVzZW50YXRpb24iIGNsYXNzPSIiIHZpZXdCb3g9IjAgMCAxOCAxOCI+PGc+PHRpdGxlPkljb24tYW5hbHl0aWNzLTE0NTwvdGl0bGU+PHBhdGggZmlsbD0idXJsKCMxOThhYWVkMC02YWYxLTRjYTMtOWMwMy1lMTZjZjkyZTcxMjEpIiBkPSJtMS40NyAxLjQ3IDE1LjA2IDE1LjA2YS41Ny41NyAwIDAgMCAxLS40VjEuMDdhLjU3LjU3IDAgMCAwLS42LS41N0gxLjg3YS41Ny41NyAwIDAgMC0uNC45N1oiLz48cGF0aCBmaWxsPSIjNTBlNmZmIiBkPSJtNS41MyA1LjUzIDYuOTQgNi45NCA1LTV2LTYuNGEuNTcuNTcgMCAwIDAtLjU0LS41N2gtNi4zN1oiLz48cmVjdCBmaWxsPSJ1cmwoIzE5OGFhZWQwLTZhZjEtNGNhMy05YzAzLWUxNmNmOTJlNzEyMikiIHRyYW5zZm9ybT0icm90YXRlKC00NSA0LjMwNyAxMy43MDYpIiByeD0iLjI3IiBoZWlnaHQ9IjEuNyIgd2lkdGg9IjkuMzciIHk9IjEyLjg1IiB4PSItLjM4Ii8+PHJlY3QgZmlsbD0idXJsKCMxOThhYWVkMC02YWYxLTRjYTMtOWMwMy1lMTZjZjkyZTcxMjMpIiB0cmFuc2Zvcm09InJvdGF0ZSgtNDUgMy4xMDcgMTAuMDgzKSIgcng9Ii4yNyIgaGVpZ2h0PSIxLjciIHdpZHRoPSI1Ljk5IiB5PSI5LjIzIiB4PSIuMTIiLz48cmVjdCBmaWxsPSJ1cmwoIzE5OGFhZWQwLTZhZjEtNGNhMy05YzAzLWUxNmNmOTJlNzEyNCkiIHRyYW5zZm9ybT0icm90YXRlKC00NSA3Ljg3NyAxNC44ODcpIiByeD0iLjI3IiBoZWlnaHQ9IjEuNyIgd2lkdGg9IjUuOTkiIHk9IjE0LjA0IiB4PSI0Ljg5Ii8+PHJlY3QgZmlsbD0iI2ZmZmZmZiIgY2xhc3M9Im1zcG9ydGFsZngtc3ZnLWMwMSIgdHJhbnNmb3JtPSJyb3RhdGUoLTQ1IDEwLjA0IDUuNjAxKSIgcng9Ii4zOCIgaGVpZ2h0PSIxLjciIHdpZHRoPSIxLjciIHk9IjQuNzUiIHg9IjkuMTkiLz48cmVjdCBmaWxsPSIjZmZmZmZmIiBjbGFzcz0ibXNwb3J0YWxmeC1zdmctYzAxIiB0cmFuc2Zvcm09InJvdGF0ZSgtNDUgMTIuNDM1IDMuMikiIHJ4PSIuMzgiIGhlaWdodD0iMS43IiB3aWR0aD0iMS43IiB5PSIyLjM1IiB4PSIxMS41OSIvPjxyZWN0IGZpbGw9IiNmZmZmZmYiIGNsYXNzPSJtc3BvcnRhbGZ4LXN2Zy1jMDEiIHRyYW5zZm9ybT0icm90YXRlKC00NSAxMi40NDIgNy45OTYpIiByeD0iLjM4IiBoZWlnaHQ9IjEuNyIgd2lkdGg9IjEuNyIgeT0iNy4xNSIgeD0iMTEuNTkiLz48cGF0aCBmaWxsPSIjZmZmZmZmIiBjbGFzcz0ibXNwb3J0YWxmeC1zdmctYzAxIiBkPSJtMTMuOTEgNS4zMy42Ni0uNjZhLjM4LjM4IDAgMCAxIC41NCAwbC42Ni42NmEuMzguMzggMCAwIDEgMCAuNTRsLS42Ni42NmEuMzguMzggMCAwIDEtLjU0IDBsLS42Ni0uNjZhLjM4LjM4IDAgMCAxIDAtLjU0Ii8+PC9nPjxkZWZzPiYjeGE7PGxpbmVhckdyYWRpZW50IGdyYWRpZW50VW5pdHM9InVzZXJTcGFjZU9uVXNlIiB5Mj0iOC42IiB4Mj0iMTcuNSIgeTE9IjguNiIgeDE9IjEuMyIgaWQ9IjE5OGFhZWQwLTZhZjEtNGNhMy05YzAzLWUxNmNmOTJlNzEyMSI+PHN0b3Agc3RvcC1jb2xvcj0iIzU0YWVmMCIgb2Zmc2V0PSIuMSIvPjxzdG9wIHN0b3AtY29sb3I9IiMxOTg4ZDkiIG9mZnNldD0iMSIvPjwvbGluZWFyR3JhZGllbnQ+JiN4YTs8bGluZWFyR3JhZGllbnQgZ3JhZGllbnRVbml0cz0idXNlclNwYWNlT25Vc2UiIGdyYWRpZW50VHJhbnNmb3JtPSJyb3RhdGUoNDUgNC4zMDQgMTMuNzAzKSIgeTI9IjEzLjciIHgyPSI4LjExIiB5MT0iMTMuNyIgeDE9Ii41IiBpZD0iMTk4YWFlZDAtNmFmMS00Y2EzLTljMDMtZTE2Y2Y5MmU3MTIyIj48c3RvcCBzdG9wLWNvbG9yPSIjYjNiMmIzIiBvZmZzZXQ9IjAiLz48c3RvcCBzdG9wLWNvbG9yPSIjOTc5Nzk3IiBvZmZzZXQ9IjEiLz48L2xpbmVhckdyYWRpZW50PiYjeGE7PGxpbmVhckdyYWRpZW50IGdyYWRpZW50VW5pdHM9InVzZXJTcGFjZU9uVXNlIiBncmFkaWVudFRyYW5zZm9ybT0icm90YXRlKDQ1IDMuMTE1IDEwLjA4KSIgeTI9IjEwLjA4IiB4Mj0iNS43MiIgeTE9IjEwLjA4IiB4MT0iLjUiIGlkPSIxOThhYWVkMC02YWYxLTRjYTMtOWMwMy1lMTZjZjkyZTcxMjMiPjxzdG9wIHN0b3AtY29sb3I9IiNiM2IyYjMiIG9mZnNldD0iMCIvPjxzdG9wIHN0b3AtY29sb3I9IiM5Nzk3OTciIG9mZnNldD0iMSIvPjwvbGluZWFyR3JhZGllbnQ+JiN4YTs8bGluZWFyR3JhZGllbnQgZ3JhZGllbnRVbml0cz0idXNlclNwYWNlT25Vc2UiIGdyYWRpZW50VHJhbnNmb3JtPSJyb3RhdGUoNDUgNy44OCAxNC44OTQpIiB5Mj0iMTQuODkiIHgyPSIxMC40OSIgeTE9IjE0Ljg5IiB4MT0iNS4yOCIgaWQ9IjE5OGFhZWQwLTZhZjEtNGNhMy05YzAzLWUxNmNmOTJlNzEyNCI+PHN0b3Agc3RvcC1jb2xvcj0iI2IzYjJiMyIgb2Zmc2V0PSIwIi8+PHN0b3Agc3RvcC1jb2xvcj0iIzk3OTc5NyIgb2Zmc2V0PSIxIi8+PC9saW5lYXJHcmFkaWVudD4mI3hhOzwvZGVmcz4mI3hhOzwvc3ZnPg==;" vertex="1" parent="1">
          <mxGeometry x="40" y="570" width="58" height="58" as="geometry" />
        </mxCell>
        <mxCell id="IhUaoYFLJie-6JwiWho2-2" value="Azure Open AI&lt;div&gt;&lt;br&gt;&lt;/div&gt;" style="image;aspect=fixed;html=1;points=[];align=center;fontSize=12;image=img/lib/azure2/ai_machine_learning/Azure_OpenAI.svg;imageBackground=default;" vertex="1" parent="1">
          <mxGeometry x="948" y="146.62" width="68" height="68" as="geometry" />
        </mxCell>
        <mxCell id="IhUaoYFLJie-6JwiWho2-4" value="Graph DB" style="shape=image;verticalLabelPosition=bottom;labelBackgroundColor=default;verticalAlign=top;aspect=fixed;imageAspect=0;image=data:image/png,iVBORw0KGgoAAAANSUhEUgAAANgAAADYCAYAAACJIC3tAAAAAXNSR0IArs4c6QAAAARnQU1BAACxjwv8YQUAAAAJcEhZcwAADsMAAA7DAcdvqGQAAB3GSURBVHhe7Z0H3F/TGcezt1nVGhWalmpRHRqrRlW1tKotig5UFR1aH6qKigQJJWLvGDGCmClKlGiMBrXV3luIWLH16fne9z7pddz/fP/nzf+V3/fzed77f+8895zzu2c999weZnbuf//739tlMlnrrUf480AQmRAiAQjs9vy3EKLFSGBCJEQCEyIhEpgQCZHAhEiIBCZEQiQwIRIigQmREAlMiIRIYEIkRAITIiESmBAJkcCESIgEJkRCJDAhEiKBCZEQCUyIhEhgQiREAhMiIRKYEAmRwIRIiAQmREIkMCESIoEJkRAJTIiESGBCJEQCEyIhEpgQCZHAhEiIBCZEQiQwIRIigQmREAlMiIRIYEIkRAITIiESmBAJkcCESIgEJkRCJDAhEiKBCZEQCUyIhEhgQiREAhMiIRKYEAmRwIRIiAQmREIkMCESIoEJkRAJTIiESGBCJEQCEyIhEpgQCZHAhEiIBCZEQiQwIRIigQmREAlMiIRIYEIkRAITIiESmBAJkcCESIgEJkRCJDAhEiKBCZEQCUyIhEhgQiREAhMiIRKYEAmRwIRIiAQmREIkMCESIoEJ0QDvv5f/qBMJTIgazJptdvYtZltfbLbxRLPNzjc76nqzx17Md6iCBCZEFaY/YrbqCWaD9wtiCdZz/45ln1Fmix1mNv7f+Y4VkMCEqMBNj5ste7BZvyCoAWHZN1iffNk/WK/RZkPCttOqiEwCE6KEt94yW+/kIKJQUvU7JJRcQVC9C8b/rO87xmzJQ83ufz4/MEICE6KEC+8N1cJQQg3864fFVRTZgCCy3iPNDrsmPzBCAhOihH2uCuLYt6OU6hUJy431VBV7hHbZpmebvVfSwyiBCVHCHpcFEYWSqZbA+gXrEUq6lU41e+Pt/OACEpgQJYy4OoijDoF5CbZZKMHefz8/uIAEJj5SvF+Wy5tg8n0dbbBBNdpgA4MA+wQhHjEtPzBCAhPdnptuuskOP/xw+/3vf29bbLGFbb311vanP/3JTj/9dHv88cfzvRrj7VDd2yBU+3rX6EXsM8Zs6XFmD72QHxghgYluyz333GPbbLONzTfffNa/f3/r2bOn9ejRI7NevXrZwIEDbdlll7UDDjjAXn/99fyo+rnjKbMVgngYVB4YCYxxsV4HmM0XqocTb8sPKEECE92Syy+/3IYOHZqJqW/fvpnAWPbp0yez4jr22Xzzze3ZZ5/Nj66f254wW2u82fx4cASh4cXBksHn5Y8M4qqhHglMdDv++c9/2hJLLGG9e/fOxOSlVplRqvXr1y+zH/3oR/byyy/nZ6mf1940u+AOsx0uMdtyktm2F5udeKPZc7PyHaoggYluxSOPPGJLL710Jpxa4ioaJRnVxr322is/U9fQtgJ76aWX7N5777UbbrjBTjrpJBs1apTtu+++NnLkSDv44IPtwgsvtDvuuCOL8HfffTc/au7w2muv2f3332/XXXedHXnkkVk499lnn8z4PX78eLv55pvt4YcfDo3nksGSucBzzz1n//nPf+zSSy/N2igjRozIwstyzJgxdtlll9ndd9+d7dcukM4///nPM6F41a9oiI52F1XDeBvGcYsvvnh2X11FWwnsiSeesHPOOScryr/yla/YsGHD7BOf+ERpZA0ePNiWWmop+9znPmdrrrmm7b333jZt2jR744038rOl5YUXXrC///3v9stf/tK+9rWv2Wc/+9kPhJXExPhNwlOlWW655WyNNdbIergQY1eF1XnggQfsxBNPtPXXX9+++MUv2jLLLGPzzz//B8LsvxdYYIFsO/t9+9vftpNPPjl7iMxN9t9//znVPQ+nG9VF1i+00EKZyIhzrLgPwqPUGzduXH7G2syePTtLqyuvvNL+8Y//W8f//7AXX6z+zkpbCIyE23333bMeH09wImfAgAFzGqoesUVjO0v2J3Nw7Le+9S0744wzkmXep59+OnvCf/WrX80yYTHxPKxlxjYPK/e28MILZxmX0o1ETMm1115rO+20UyYYHkyEgYzm8ReHtRi/ZFz257hPfepTtuOOO9q//vWv/MxdByUqaezhKRr3Qni/853v2CWXXGInnHCCffKTn/zAAwPjWNax3zvvvJOfuTqkNw8Z8hbidSP9iJOrr74637OcuSowBgWpnlBSkem4eRI1jph6zDMFkc0TbL311suql62CsB533HG24oorzkmoYgZsxAgnguNYlquttlpWGrYaagR0Y5MZCK+LqixM1cwfdoQXW3TRRe1Xv/qVPfnkk/mV0sJY1pe//OUs3uK84WnB9qeeeio/wuyII47IHhZx+rDu85//vL366qv5ntWh53HllVfOhgLIV4MGDcqWCG7IkCF21VVX5XuWM9cERsBJfCKHSCDx4yK9GeNcJARLqmWNVAcqQTvvxz/+cRaxnJdEihO6GfOw8vvjH/+4/fGPf6w74Wtx1llnZQ8Dzu3xUbx2M0b6cB4eCtz/CiusYJMmTcqvmAbat5Q4XJ88EoeJtCDzT548OT+iA6pwCy644Jz4deN/SqRGBIZ4uefiebh/BNaWJdhjjz2WlTBetBcDXjRugn0wIrK4xEjsSqL0jMBvGu6NEuIlW9566632pS99KTtPHMlF87ASvmIYi78ridJLCH7/4Ac/yDp4OsNhhx2WXZfrsYyv50YcVQtzNVGyD9vJZMccc0x+5dZDx4tfLw4D6UGJUvYQpfOmlQKLS37ipy0FRnuDTESmqiQuthF5LIuZkhvyY0hctrGsdh5KHX43kwluv/32OVVCIjQ+P0YYPPL5zTX5Tf28uN63sc73ic0FvMkmm9isWXUMspRw0EEHZfGBcc34GhjbyLCEoygiSgL/zXq2s1+l+OX8bKe61IqaguMPN0SyyCKLzMkLxWu74H7yk5+U9iLTZpsnBUYPGpHjERQb64lMEpu2yZ///OdMHKeeemo2en/RRRdlHQOHHnqobbvttlnHCDdLYhczixvrSSAa6LfcckseitowREDdu9KTnDByXs5PG2fttdfOOmoI6ymnnJK1qf72t79lQwx03e+8887Z/ZDoHENCx5kGc5HhefDmm2/moamPo48+OjuvnyM27oX45fpLLrlk1ls7evRoO/74423ixIl2xRVX2Nlnn539z/pNN900G3Pi/jlvpYcM50Rk9FC2CrrS6SXmmnE88T9h4uFHbaiMeVJg1Is9cxUDi3mkeQcFvUHUv2tBA5hxsc985jPZOcoyAeuxjTbaqK5xKPahN5Jjy87HOjIVDwHakVOnTq3L1w0vAp7KP/zhD7OqDecoE6/HzyGHHJIfWRu8GzgfYSOOK53z05/+dNaxhB/fe2VvCBagY4cHDb2mDEMQVq4RnxtzkV1//fX50c1DD/B3v/vd7Lxx/JOOPEB4QFS71jwnMDLtBhtskCV+nKmINJZUq8aOHWtvMSFCg9x3333ZeBjnKcsERCwRcv755+dHVAbPbCI0ThzMw87YF4nYDGRsSgrGxYrnLJpnon//u8a0RQGEy9gW4a30QODe8TInnprhwQcftF/84hdzROxp5ka6YqTxK6+8kh/VHHhbcC9l8e/rqApXY54TGNU7nvhl1RcSjcBSneoMRMbqq68+JwKK1/BMTI9UtVLsoYceynr0ykoBX7fuuuvao48+mh/RPIhn+eWX/8C53Ty8W265Zc2S5thjj832rSQuHlwM0rYCPFNcZPG1PDPzgGqWCRMmZOcuExfriaef/exnNcex5jmB4fFAwOKM5ImFJ0YrIOPTfVyWARD3xz72saqlwh/+8Icsc8cPAsJNWBHwM888k+/dee6888457ci4VCAzMKh5zTUVZlQJ4Mr0hS98IQtffDzhpcqNKFoJaUX8cP7i9TwMPDRmzJiR710/VEcZDOc8cT4hTYijr3/965kXTS3mKYHhToLnQxxpJAYRt9JKKzWVIJWgJCQi48h1MdMGKYPIpNrmpUfROI7OjOnTp+d7tw46QyhluEbxmp5hGdStBC8VEt74Xv0eNtxww4Y7S2pBDYD2LGGLw0w4iGc6ehqBai7tXo4ti3/iAs8Z3JbqYZ4SGL1TNIDLbpaAMureSkgsIrEsocgU3/ve90q7dvG3K3t6kugct8suu+R7thY6E376059m1y1mWK6J0cFQ1lvGPXz/+9/PjonvlbjFXSjFAwFwv6IqHZdibriBNeKE7TWcsvNRWtIp1MhQyzwlMLp9qar4mJQbN0v1CCfUVkO1iEiIE4yMSAQTcTG//vWvP3QMGZwExiuEKkwqEAIZNs4QxBkJWdY5Q3uRKlVcneUeESue5ymh04RrlYmbdK23nYrvKPcZ37ufizQgbRphnhIYT34SoSyzU4Vp5ElXL3SHEymxqLkmvXN33XVXvmcHtGW87UaC+v78j/3mN7/J90wHXdNxZiXOuP5uu+2W7/V/zj333Gx7XOKSiehQwts7JfjhUTOJ4xjBs47qay1uvPHGbLyrTFyeDnjSPP98halzKzDPCIwesLXWWisLVDEjeORRNUgB3co8RcmARcF4hsRXrwheG3QoxKUBx2IM/PIqDQPeKQyfPo+nYnjdeH0npFUe2g523XXXbFtRlBzLPVKtbDRTNgreJsOHD8/is5i2XJ8w1epcobPCe1HjBwv3QVow0I0IG2WeERhjWmT0YuAwT5D99tsv37O1MFjJ2FAsMBKNa+P1UARnUZ7GscAwP55lSiNcLMuuz3tvcUcQbkIkdDFzcr9kIl4radUUZtUoOmx7GPiNbb/99vleH4aHxe9+97ss/ITZj3VjHWlx2mmn5Uc0RvcSWEinZ14yu+1Js/tD0+XVBl5fwsPBn1JF8wispxrRDAiMMa8ygWFxxwpuPqyPE8SNc3jmTWVl4sK4Lm0tvC8cxIOHPwlfLD04D/fBG+BdAdeJBebhoaOjktMADsl+336cG5mX5XbbbfehUrteuo3Apj5gtsVEsxUPN1vsYLNlxpqte7zZgVPNZubeQdWiAM/wshKMG6WdcMEFF+R7thYSljYNERELjMiKB0P9/aGyBJ/bRpjxpbzttv/PD8ZAK07TZQLjng888MB8z7TgzsV1XRSYxzdvb5e5u9EDSa8g4Y4fKpyHdKD20Zm3CtpeYO8F1ew1zWyh0WZ9w8OQCRb7HNRh/Q4IB44MQhtv9mSNr/wxBlZJYIxrXHzxxfmerQWB0R1fr8D4v10FRpjomCk6KzO2RQcR24oC4x6430b8GDsDfqBct0xgtM/ijExnEoPFhLMYbjdKQubNKD5MmqHtBcZ8b8wBNxBRMYNpKL3ceof/mYgRka01ITR2q4xj1hIY3vEpaFRgeLxXExjb6BmbG0ZC8hZx0QOlVgmGg25XgJCJ3zKBxSUYHV7Vxrs8jjvrMgdtLbBZIU5WP9ZsQCipmOC+bPJ7pg4eFITGJIwTqvijdheB0QZjfZwgHEvCMw5Gzxze6F1ttL9oxxZLMNpgTBNdJjDukdm3ugKuw/XL2mC0gYttMKa4xlUtjmOMMLOe15laQVsLbOp9ZvMHcfWvMvE9ouNTmr33N9uEHu8KDbHuIjDclcp6ETmW9bwvxbRreKPPDWNioPiVGLw/uL9i5uZhgOFe1RW9iAxmE0fFMPAb22GHHfK9OvBhhbhq6P/zNkSzL5rGtLXAjrghbAjVw+w7tLmgyoxt/UIbbfhxZq9VmMSpuwiMORbLxsH86cxYVbvBHB6EsZi5Me6Z0pbMkZKZM2dmr+0QR0XRIHDCVBwHIz2++c1vZmErhtVrCJTUjbwQW4u2FthYBBZKproEFkq6NU4wm12hHdZdBFbJk8OfxrwL1W6cd955WeaMSwTukcTHBzQlU6ZMqerJgQuUQ1vsG9/4xocyKvmAe/jLX/6S79ka2lpgU+7pqCIOqFJFdOsT9lv75HBQhVeWGK1HYATISwOWJALd9O3SiwhlA58cyzGpfRGbgdmuePITPg8vRhwT7q222irfMw2bbbbZnPQsXp9MTJoXPx1E9RaBxWElvjGmL2hllZaMX0lgCCbk+3zP6iQR2IuvmC17VBBQqP4horJSzNfRq7hgsJ0mmz1dMq8+AmPGWwLIHBfMS7HKKqtkLjAkDP50KWhGYFQDyzIMguMcvCvWTuDDSU8i90i4i2EmI9Hz2IpX+MvgHTVe3yk+jIpG3BdfFCWsdHoU08KNsPOwpZbAGw286sK8K80aJSffCiOd43jhf3wfebGTGgBvluOmxpyXNBNikggMjpweSrBQhR4cSrG+h3SUZG4Ii+8j9c239Q5LehNXPdbs0ughz2AhE9RQXXnu2Wds1kszg+hmZKUBXvbN+JnVQzMCw3ev0suaZCRmOGKO+VbDqygIgRlzY+P9p2oTfNL5QtjiJ7VnLNo9zXwbqxp4yTA1APFaJmzCU6weOrzmzz6V4pfzYTzg/HezFp+/aF6DIh+wRCisJz/GJBMY7lGjppgNZJA5tMcGBhFRZWT8q/+B4XdYNz/CCqUc6/sHofUP1cW+Y0Lj+3KzWXPStDlXl87SjMBgzz33zI5hv2KEkpHIPLzRXJxBtrPQM8nsSCQWL1264enAkm5t5tyvBDUEagZkmrKSlzDT9V1vlagWVOPoXCEOY1G7MJg5t+ytY2Ya5u1r4jYOK+ZxTLg7a7Hwi0YYfT/SmnimzVjWkZVOYBDS5Jywdd3Qxlr8ILOFgngWDeJaLuTNEUF800MVe/sLzYbsF0QYtmWf1Az79Q+iXOVEs6se6jjNs6HqeEooqHYM+249yWzMVWa3PNGxLRXNCox2jc/JET8JPdHWWWedbL/OwntwZDjOSZiKie4JylhXrfknGJglvBznYXXzc/Gaf2dfC0Jce+yxRyaCsgzsgosdqYsw3sg+hKlMZHPDyBM80LpeYDmz3+74nOaUUP277uGorRVEePJNZksfGsQVhEbVkdKMXsglx5rtfHEQW6g6Dgqiy74OGNaz36JBiLuHkm524xNI1UWzAoOjjjoq2ycuxTDPWLQjmVquWagSurjKrsM6XIbq6br26aVdnPG5WMcTmldumnVB4nUeH9guuwbxwnr8P2v10DHTMscgyLJ772ojDHNVYPVw97Nmm58ZxBOE1DuUcrTNBgQR9Q5iotpI1ZKBaSyrToZtPUeY7XSR2Tutf9+yUwLzKebYP64GYZ6ZqFrwVi8vNtbjmMqsxry5TGOeDgjOgcXn92vi51cveElwTkqFspLBz4loKc0QWrXZtYDtTB2OIPCF5HhEXDwv5teko6LeNjWdGWRcPx8ZnIcAadNZ4zxl8epGWD0fsGSogf3pIIlpG4HBu6Em89fQXFgi5IveQVT4LGbVxvA/nSPe8+gdJUOC4c94euf8OkvpjMCA6httG8RUVh0ikcgcbGOAmhKNt47xAeT1fnrZiHxe0sSznVl/mdSFjhKOJ1xlQvAMx6y6jU5WQ/WrWqnA9TzjUQ2mB5I2J3HBTMSEmfEj/mduwo033jgLL/dIuMrCi7GNzNboYDxjj7y2QkcMA9ZMfkT7jZK9M8Z5fFbgsvDyYOQ6dGixP0smri3r0W4rgTk3P2a28nEdJRdCKrNskDqIr2eoMm44ITwtW1yKdVZgQLWIyHcxFSPYjW2ck+3FRPAnsv/PPoTF9/X1RWMb5yPceEk0Az22XNfPVXYdro8QMQ8LS8LsmdL38XAXj3dDeOxDRsNZulloG/IyKZ0gzONBr2pnjPPQ1U+JGoed/3l5la97Mk7nxzC/SZmbVlsKDLYM1cUBdH5EwioaIusbqpOLjzN7sHWztmV0VmAhXrIlVSn/DFBRMLG5CP16br4eKysJMdaTuflNqVHWA9cIZHbCynm53/h6bl4yxWH29ZXCiyEs9qU0aOWc9K2Cajs1C8IZh5s5Pur9AF9bCuzdULXfJFRnBweBUU0sExdGVXFwaIstHpa3tvhbbi6wOJOQcch09ZRgDk9VHGsRAZmKRKpUOjRinMMFQJWNamRnp512+IY11VbOTXiriaURI2MRh8QDGS+VJ05naWtXqVaw1USz/pRgVQTmJdhih6UpwejRIgMjDCIIw/+Rpzt1/0ahO5zEIYK9ZKpWQpQZGZNwcLyLlLE1phZvNWQOvOoRb/HaZI5imGoZ+3OfiJRzLLbYYvbb3/42a0O1Kx9pgV1yr9nQo4O4gnjKhIV5G4xu+w1ON3un+vTrDYO3AZ0KRATVGG8TESlkFNoqzYC3B8cS6ZyL87vQEAwZEHMB+f9ck+t7ZiVMzI7LpC6tnnk3Bo8QXIeYdoDrEhYyDOH2MLJkfTHMbPeHAcfR4cF56vkgxdzmIymwF2ab7X2F2cJBWD3yDg488l1QRYFRPRz011BFHGU2KUEZSh0bT31mg+Wj2LjBuDHO1dlXI+iEwP2LLm8+BkFvFKUjEV9MCIxEpRQhoRiv4i1gXKAoZbsSGvK4MPFdNXxC8QdF9AioGF7+Zz3b2Y9hhTPPPDN7J627kFpgPHwQWLXvBkCnBFb0vrn+YbNVTwonDIJhmgHGwfqFJSXUwNHhdxAU1UXWMxbGPv1GmO0yObTZWlx6dTWMF9EjxXfCEDXd1XTN89VH5l/kZU5KEUq/Wl9K6SrIYHzkju55nF55EDFnP0v+p8rK9nozYrvRKoHhB0q3f9wU8BKMdK1GXQJ7PrS7LwsPr1PDQ/+cO83u5uMiubheD7WbkVPNFgmlUd8gpkxAwfBfHDbWbNdLzNY4vkN4PYP1Cu0yfi8V9h85JbSV6uvMEaIhmNmZAWSaBpQ2CAtR8D+9wvV2JuFhT9U6rplQheZc8QzRMVUF9nbI/IdMMxse2lO9DsjFEYSzRBDQtheZTb7bbIszwvqRodqXl1qUTAhpeCjNbsynJp/xstmxN3Z4bWx7ntmIUG1ljkUhUkHJTLvRhYXRxkRsDDLXW4LhKMCxxWo04mJJCYmzdjUqCuzNt822C2LouW+oyoUqHuNZtKfomOhHGysIbb7QzsKDnvUDwvqe4ffCYR0l08xKk5MWqpVCpALXNfw9mYOR9q4b/9NJU6/jM29aIybE6QLzjiCmn+NLPtWoKLCRoZTBjQl3pl5BPN5R4Z0VtKl4TSXrsAhLfBBXC1XBSwvtYGlJdGf40CLVSUpBL7UwSjTW1fPFl1KBPTnTbNlxocoXSir3G4zNxdYniGu+sNw5tLVmds/2sBAfgl5iPlaPoKhWurj8f0o0OrFqUSqwC8Ka/qEKWM+kN31DtXAd5uRIP0OYEElgzJTueHqCmSKPt8SZlRgxUVIVxeUCw5m4nu/alQpsz2vChiAw3u2qJTDaZ2ueEAKZdqxUiGQwtDJs2LBsqjuW9A5SQhXbXUVxUV1kQqGgnfwMlSkV2OjrOgRWVwkWBEbbSwIT3RXGLRGPe/vEbS43OjfYNnTo0Ozj9fVQKrBsZt98ro1KbTCMjo5eQYgbp5kYSoguAe8WhBW3tYpGaeaDzY04ipcK7JU3zIaHUol3tfC6iEsx/u8RbFAwHHovrE/MQrQltQTmjs54buDt0gilAoNJd3VMZjNkTMfYF+NgLjQGlAfTdT/CbOtQer2V4JV/IboKPgJJ9RDPD6qACI2ld3DgY8qY15VXXpkfUT8VBQbjpwch4bQ7KuzIoPKBQWT5IDPeG1udZTajNa8vCTHX8DYYDr20vRAbztvMHoZjNJ8XpqexGaoKDKY9ZrbzRWbDjjFbYlywI8w2mmB20k1mb1SfM0WIbgFT8FGKYXTRU1IxjUArXn6tKTBnxmtm9zxn9ujM7u/9LkRXUbfAhBCNI4EJkRAJTIiESGBCJEQCEyIhEpgQCZHAhEiIBCZEQiQwIRIigQmREAlMiIRIYEIkRAITIiESmBAJkcCESIgEJkRCJDAhEiKBCZEQCUyIhEhgQiREAhMiIRKYEAmRwIRIiAQmREIkMCESIoEJkRAJTIiESGBCJEQCEyIhEpgQCZHAhEiIBCZEQiQwIRIigQmREAlMiIRIYEIkRAITIiESmBAJkcCESIgEJkRCJDAhEiKBCZEQCUyIhEhgQiREAhMiIRKYEAmRwIRIiAQmREIkMCESIoEJkRAJTIiESGBCJEQCEyIhEpgQCZHAhEiIBCZEQiQwIRIigQmREAlMiIRIYEIkRAITIiESmBAJkcCESIgEJkRCJDAhEiKBCZEQCUyIhEhgQiREAhMiIRKYEAmRwIRICAK7M/8thGgxCOyu/LcQoqWY/Q9oTTmssgfksAAAAABJRU5ErkJggg==;clipPath=inset(26.85% 0% 26.85% 0%);" vertex="1" parent="1">
          <mxGeometry x="210" y="155" width="112.32" height="52" as="geometry" />
        </mxCell>
        <mxCell id="IhUaoYFLJie-6JwiWho2-5" value="Azure AI Search" style="image;aspect=fixed;html=1;points=[];align=center;fontSize=12;image=img/lib/azure2/app_services/Search_Services.svg;imageBackground=default;" vertex="1" parent="1">
          <mxGeometry x="682" y="169.88" width="68" height="49.120000000000005" as="geometry" />
        </mxCell>
        <mxCell id="IhUaoYFLJie-6JwiWho2-7" value="Container in&lt;br&gt;Storage Account" style="image;aspect=fixed;html=1;points=[];align=center;fontSize=12;image=img/lib/azure2/storage/Storage_Accounts.svg;" vertex="1" parent="1">
          <mxGeometry x="28" y="160.42000000000002" width="67.75" height="54.2" as="geometry" />
        </mxCell>
        <mxCell id="IhUaoYFLJie-6JwiWho2-9" value="Azure Machine Learning &#xa;Notebook" style="shape=image;verticalLabelPosition=bottom;verticalAlign=top;imageAspect=0;aspect=fixed;image=data:image/svg+xml,PHN2ZyB4bWxuczp4bGluaz0iaHR0cDovL3d3dy53My5vcmcvMTk5OS94bGluayIgeG1sbnM9Imh0dHA6Ly93d3cudzMub3JnLzIwMDAvc3ZnIiBkYXRhLXR5cGU9IjEiIGlkPSJGeFN5bWJvbDAtMGIxIiByb2xlPSJwcmVzZW50YXRpb24iIGNsYXNzPSIiIHZpZXdCb3g9IjAgMCA5NTEgMTAyNCI+PGc+PHRpdGxlLz48ZyBmaWxsPSJub25lIj48cGF0aCBkPSJNMzQ3LjQyOSAwaDI1NnYzODRoLTI1NnoiIGZpbGw9IiMwNDZFQUIiLz48cGF0aCBkPSJNODg2Ljg1NyAxMDI0SDY0TDAgNzc3LjE0M2g5NTAuODU3eiIgZmlsbD0iIzE5NDU3QSIvPjxwYXRoIGQ9Ik02NCAxMDI0IDAgNzc3LjE0MyAzNDcuNDI5IDM4NGgyNTZ6IiBmaWxsPSIjMTU5MENGIi8+PHBhdGggZD0iTTg4Ni44NTcgMTAyNCA1MTIgNjQwbDE1NS40MjktMTgyLjg1NyAyODMuNDI4IDMyMHoiIGZpbGw9IiMwNDZFQUIiLz48L2c+PC9nPjxkZWZzPiYjeGE7PC9kZWZzPiYjeGE7PC9zdmc+;imageBackground=default;" vertex="1" parent="1">
          <mxGeometry x="470" y="168.59" width="46.44" height="50" as="geometry" />
        </mxCell>
        <mxCell id="IhUaoYFLJie-6JwiWho2-55" value="Azure Open AI&lt;div&gt;&lt;br&gt;&lt;/div&gt;" style="image;aspect=fixed;html=1;points=[];align=center;fontSize=12;image=img/lib/azure2/ai_machine_learning/Azure_OpenAI.svg;imageBackground=default;" vertex="1" parent="1">
          <mxGeometry x="948" y="403.62" width="68" height="68" as="geometry" />
        </mxCell>
        <mxCell id="IhUaoYFLJie-6JwiWho2-56" value="Graph DB" style="shape=image;verticalLabelPosition=bottom;labelBackgroundColor=default;verticalAlign=top;aspect=fixed;imageAspect=0;image=data:image/png,iVBORw0KGgoAAAANSUhEUgAAANgAAADYCAYAAACJIC3tAAAAAXNSR0IArs4c6QAAAARnQU1BAACxjwv8YQUAAAAJcEhZcwAADsMAAA7DAcdvqGQAAB3GSURBVHhe7Z0H3F/TGcezt1nVGhWalmpRHRqrRlW1tKotig5UFR1aH6qKigQJJWLvGDGCmClKlGiMBrXV3luIWLH16fne9z7pddz/fP/nzf+V3/fzed77f+8895zzu2c999weZnbuf//739tlMlnrrUf480AQmRAiAQjs9vy3EKLFSGBCJEQCEyIhEpgQCZHAhEiIBCZEQiQwIRIigQmREAlMiIRIYEIkRAITIiESmBAJkcCESIgEJkRCJDAhEiKBCZEQCUyIhEhgQiREAhMiIRKYEAmRwIRIiAQmREIkMCESIoEJkRAJTIiESGBCJEQCEyIhEpgQCZHAhEiIBCZEQiQwIRIigQmREAlMiIRIYEIkRAITIiESmBAJkcCESIgEJkRCJDAhEiKBCZEQCUyIhEhgQiREAhMiIRKYEAmRwIRIiAQmREIkMCESIoEJkRAJTIiESGBCJEQCEyIhEpgQCZHAhEiIBCZEQiQwIRIigQmREAlMiIRIYEIkRAITIiESmBAJkcCESIgEJkRCJDAhEiKBCZEQCUyIhEhgQiREAhMiIRKYEAmRwIRIiAQmREIkMCESIoEJ0QDvv5f/qBMJTIgazJptdvYtZltfbLbxRLPNzjc76nqzx17Md6iCBCZEFaY/YrbqCWaD9wtiCdZz/45ln1Fmix1mNv7f+Y4VkMCEqMBNj5ste7BZvyCoAWHZN1iffNk/WK/RZkPCttOqiEwCE6KEt94yW+/kIKJQUvU7JJRcQVC9C8b/rO87xmzJQ83ufz4/MEICE6KEC+8N1cJQQg3864fFVRTZgCCy3iPNDrsmPzBCAhOihH2uCuLYt6OU6hUJy431VBV7hHbZpmebvVfSwyiBCVHCHpcFEYWSqZbA+gXrEUq6lU41e+Pt/OACEpgQJYy4OoijDoF5CbZZKMHefz8/uIAEJj5SvF+Wy5tg8n0dbbBBNdpgA4MA+wQhHjEtPzBCAhPdnptuuskOP/xw+/3vf29bbLGFbb311vanP/3JTj/9dHv88cfzvRrj7VDd2yBU+3rX6EXsM8Zs6XFmD72QHxghgYluyz333GPbbLONzTfffNa/f3/r2bOn9ejRI7NevXrZwIEDbdlll7UDDjjAXn/99fyo+rnjKbMVgngYVB4YCYxxsV4HmM0XqocTb8sPKEECE92Syy+/3IYOHZqJqW/fvpnAWPbp0yez4jr22Xzzze3ZZ5/Nj66f254wW2u82fx4cASh4cXBksHn5Y8M4qqhHglMdDv++c9/2hJLLGG9e/fOxOSlVplRqvXr1y+zH/3oR/byyy/nZ6mf1940u+AOsx0uMdtyktm2F5udeKPZc7PyHaoggYluxSOPPGJLL710Jpxa4ioaJRnVxr322is/U9fQtgJ76aWX7N5777UbbrjBTjrpJBs1apTtu+++NnLkSDv44IPtwgsvtDvuuCOL8HfffTc/au7w2muv2f3332/XXXedHXnkkVk499lnn8z4PX78eLv55pvt4YcfDo3nksGSucBzzz1n//nPf+zSSy/N2igjRozIwstyzJgxdtlll9ndd9+d7dcukM4///nPM6F41a9oiI52F1XDeBvGcYsvvnh2X11FWwnsiSeesHPOOScryr/yla/YsGHD7BOf+ERpZA0ePNiWWmop+9znPmdrrrmm7b333jZt2jR744038rOl5YUXXrC///3v9stf/tK+9rWv2Wc/+9kPhJXExPhNwlOlWW655WyNNdbIergQY1eF1XnggQfsxBNPtPXXX9+++MUv2jLLLGPzzz//B8LsvxdYYIFsO/t9+9vftpNPPjl7iMxN9t9//znVPQ+nG9VF1i+00EKZyIhzrLgPwqPUGzduXH7G2syePTtLqyuvvNL+8Y//W8f//7AXX6z+zkpbCIyE23333bMeH09wImfAgAFzGqoesUVjO0v2J3Nw7Le+9S0744wzkmXep59+OnvCf/WrX80yYTHxPKxlxjYPK/e28MILZxmX0o1ETMm1115rO+20UyYYHkyEgYzm8ReHtRi/ZFz257hPfepTtuOOO9q//vWv/MxdByUqaezhKRr3Qni/853v2CWXXGInnHCCffKTn/zAAwPjWNax3zvvvJOfuTqkNw8Z8hbidSP9iJOrr74637OcuSowBgWpnlBSkem4eRI1jph6zDMFkc0TbL311suql62CsB533HG24oorzkmoYgZsxAgnguNYlquttlpWGrYaagR0Y5MZCK+LqixM1cwfdoQXW3TRRe1Xv/qVPfnkk/mV0sJY1pe//OUs3uK84WnB9qeeeio/wuyII47IHhZx+rDu85//vL366qv5ntWh53HllVfOhgLIV4MGDcqWCG7IkCF21VVX5XuWM9cERsBJfCKHSCDx4yK9GeNcJARLqmWNVAcqQTvvxz/+cRaxnJdEihO6GfOw8vvjH/+4/fGPf6w74Wtx1llnZQ8Dzu3xUbx2M0b6cB4eCtz/CiusYJMmTcqvmAbat5Q4XJ88EoeJtCDzT548OT+iA6pwCy644Jz4deN/SqRGBIZ4uefiebh/BNaWJdhjjz2WlTBetBcDXjRugn0wIrK4xEjsSqL0jMBvGu6NEuIlW9566632pS99KTtPHMlF87ASvmIYi78ridJLCH7/4Ac/yDp4OsNhhx2WXZfrsYyv50YcVQtzNVGyD9vJZMccc0x+5dZDx4tfLw4D6UGJUvYQpfOmlQKLS37ipy0FRnuDTESmqiQuthF5LIuZkhvyY0hctrGsdh5KHX43kwluv/32OVVCIjQ+P0YYPPL5zTX5Tf28uN63sc73ic0FvMkmm9isWXUMspRw0EEHZfGBcc34GhjbyLCEoygiSgL/zXq2s1+l+OX8bKe61IqaguMPN0SyyCKLzMkLxWu74H7yk5+U9iLTZpsnBUYPGpHjERQb64lMEpu2yZ///OdMHKeeemo2en/RRRdlHQOHHnqobbvttlnHCDdLYhczixvrSSAa6LfcckseitowREDdu9KTnDByXs5PG2fttdfOOmoI6ymnnJK1qf72t79lQwx03e+8887Z/ZDoHENCx5kGc5HhefDmm2/moamPo48+OjuvnyM27oX45fpLLrlk1ls7evRoO/74423ixIl2xRVX2Nlnn539z/pNN900G3Pi/jlvpYcM50Rk9FC2CrrS6SXmmnE88T9h4uFHbaiMeVJg1Is9cxUDi3mkeQcFvUHUv2tBA5hxsc985jPZOcoyAeuxjTbaqK5xKPahN5Jjy87HOjIVDwHakVOnTq3L1w0vAp7KP/zhD7OqDecoE6/HzyGHHJIfWRu8GzgfYSOOK53z05/+dNaxhB/fe2VvCBagY4cHDb2mDEMQVq4RnxtzkV1//fX50c1DD/B3v/vd7Lxx/JOOPEB4QFS71jwnMDLtBhtskCV+nKmINJZUq8aOHWtvMSFCg9x3333ZeBjnKcsERCwRcv755+dHVAbPbCI0ThzMw87YF4nYDGRsSgrGxYrnLJpnon//u8a0RQGEy9gW4a30QODe8TInnprhwQcftF/84hdzROxp5ka6YqTxK6+8kh/VHHhbcC9l8e/rqApXY54TGNU7nvhl1RcSjcBSneoMRMbqq68+JwKK1/BMTI9UtVLsoYceynr0ykoBX7fuuuvao48+mh/RPIhn+eWX/8C53Ty8W265Zc2S5thjj832rSQuHlwM0rYCPFNcZPG1PDPzgGqWCRMmZOcuExfriaef/exnNcex5jmB4fFAwOKM5ImFJ0YrIOPTfVyWARD3xz72saqlwh/+8Icsc8cPAsJNWBHwM888k+/dee6888457ci4VCAzMKh5zTUVZlQJ4Mr0hS98IQtffDzhpcqNKFoJaUX8cP7i9TwMPDRmzJiR710/VEcZDOc8cT4hTYijr3/965kXTS3mKYHhToLnQxxpJAYRt9JKKzWVIJWgJCQi48h1MdMGKYPIpNrmpUfROI7OjOnTp+d7tw46QyhluEbxmp5hGdStBC8VEt74Xv0eNtxww4Y7S2pBDYD2LGGLw0w4iGc6ehqBai7tXo4ti3/iAs8Z3JbqYZ4SGL1TNIDLbpaAMureSkgsIrEsocgU3/ve90q7dvG3K3t6kugct8suu+R7thY6E376059m1y1mWK6J0cFQ1lvGPXz/+9/PjonvlbjFXSjFAwFwv6IqHZdibriBNeKE7TWcsvNRWtIp1MhQyzwlMLp9qar4mJQbN0v1CCfUVkO1iEiIE4yMSAQTcTG//vWvP3QMGZwExiuEKkwqEAIZNs4QxBkJWdY5Q3uRKlVcneUeESue5ymh04RrlYmbdK23nYrvKPcZ37ufizQgbRphnhIYT34SoSyzU4Vp5ElXL3SHEymxqLkmvXN33XVXvmcHtGW87UaC+v78j/3mN7/J90wHXdNxZiXOuP5uu+2W7/V/zj333Gx7XOKSiehQwts7JfjhUTOJ4xjBs47qay1uvPHGbLyrTFyeDnjSPP98halzKzDPCIwesLXWWisLVDEjeORRNUgB3co8RcmARcF4hsRXrwheG3QoxKUBx2IM/PIqDQPeKQyfPo+nYnjdeH0npFUe2g523XXXbFtRlBzLPVKtbDRTNgreJsOHD8/is5i2XJ8w1epcobPCe1HjBwv3QVow0I0IG2WeERhjWmT0YuAwT5D99tsv37O1MFjJ2FAsMBKNa+P1UARnUZ7GscAwP55lSiNcLMuuz3tvcUcQbkIkdDFzcr9kIl4radUUZtUoOmx7GPiNbb/99vleH4aHxe9+97ss/ITZj3VjHWlx2mmn5Uc0RvcSWEinZ14yu+1Js/tD0+XVBl5fwsPBn1JF8wispxrRDAiMMa8ygWFxxwpuPqyPE8SNc3jmTWVl4sK4Lm0tvC8cxIOHPwlfLD04D/fBG+BdAdeJBebhoaOjktMADsl+336cG5mX5XbbbfehUrteuo3Apj5gtsVEsxUPN1vsYLNlxpqte7zZgVPNZubeQdWiAM/wshKMG6WdcMEFF+R7thYSljYNERELjMiKB0P9/aGyBJ/bRpjxpbzttv/PD8ZAK07TZQLjng888MB8z7TgzsV1XRSYxzdvb5e5u9EDSa8g4Y4fKpyHdKD20Zm3CtpeYO8F1ew1zWyh0WZ9w8OQCRb7HNRh/Q4IB44MQhtv9mSNr/wxBlZJYIxrXHzxxfmerQWB0R1fr8D4v10FRpjomCk6KzO2RQcR24oC4x6430b8GDsDfqBct0xgtM/ijExnEoPFhLMYbjdKQubNKD5MmqHtBcZ8b8wBNxBRMYNpKL3ceof/mYgRka01ITR2q4xj1hIY3vEpaFRgeLxXExjb6BmbG0ZC8hZx0QOlVgmGg25XgJCJ3zKBxSUYHV7Vxrs8jjvrMgdtLbBZIU5WP9ZsQCipmOC+bPJ7pg4eFITGJIwTqvijdheB0QZjfZwgHEvCMw5Gzxze6F1ttL9oxxZLMNpgTBNdJjDukdm3ugKuw/XL2mC0gYttMKa4xlUtjmOMMLOe15laQVsLbOp9ZvMHcfWvMvE9ouNTmr33N9uEHu8KDbHuIjDclcp6ETmW9bwvxbRreKPPDWNioPiVGLw/uL9i5uZhgOFe1RW9iAxmE0fFMPAb22GHHfK9OvBhhbhq6P/zNkSzL5rGtLXAjrghbAjVw+w7tLmgyoxt/UIbbfhxZq9VmMSpuwiMORbLxsH86cxYVbvBHB6EsZi5Me6Z0pbMkZKZM2dmr+0QR0XRIHDCVBwHIz2++c1vZmErhtVrCJTUjbwQW4u2FthYBBZKproEFkq6NU4wm12hHdZdBFbJk8OfxrwL1W6cd955WeaMSwTukcTHBzQlU6ZMqerJgQuUQ1vsG9/4xocyKvmAe/jLX/6S79ka2lpgU+7pqCIOqFJFdOsT9lv75HBQhVeWGK1HYATISwOWJALd9O3SiwhlA58cyzGpfRGbgdmuePITPg8vRhwT7q222irfMw2bbbbZnPQsXp9MTJoXPx1E9RaBxWElvjGmL2hllZaMX0lgCCbk+3zP6iQR2IuvmC17VBBQqP4horJSzNfRq7hgsJ0mmz1dMq8+AmPGWwLIHBfMS7HKKqtkLjAkDP50KWhGYFQDyzIMguMcvCvWTuDDSU8i90i4i2EmI9Hz2IpX+MvgHTVe3yk+jIpG3BdfFCWsdHoU08KNsPOwpZbAGw286sK8K80aJSffCiOd43jhf3wfebGTGgBvluOmxpyXNBNikggMjpweSrBQhR4cSrG+h3SUZG4Ii+8j9c239Q5LehNXPdbs0ughz2AhE9RQXXnu2Wds1kszg+hmZKUBXvbN+JnVQzMCw3ev0suaZCRmOGKO+VbDqygIgRlzY+P9p2oTfNL5QtjiJ7VnLNo9zXwbqxp4yTA1APFaJmzCU6weOrzmzz6V4pfzYTzg/HezFp+/aF6DIh+wRCisJz/GJBMY7lGjppgNZJA5tMcGBhFRZWT8q/+B4XdYNz/CCqUc6/sHofUP1cW+Y0Lj+3KzWXPStDlXl87SjMBgzz33zI5hv2KEkpHIPLzRXJxBtrPQM8nsSCQWL1264enAkm5t5tyvBDUEagZkmrKSlzDT9V1vlagWVOPoXCEOY1G7MJg5t+ytY2Ya5u1r4jYOK+ZxTLg7a7Hwi0YYfT/SmnimzVjWkZVOYBDS5Jywdd3Qxlr8ILOFgngWDeJaLuTNEUF800MVe/sLzYbsF0QYtmWf1Az79Q+iXOVEs6se6jjNs6HqeEooqHYM+249yWzMVWa3PNGxLRXNCox2jc/JET8JPdHWWWedbL/OwntwZDjOSZiKie4JylhXrfknGJglvBznYXXzc/Gaf2dfC0Jce+yxRyaCsgzsgosdqYsw3sg+hKlMZHPDyBM80LpeYDmz3+74nOaUUP277uGorRVEePJNZksfGsQVhEbVkdKMXsglx5rtfHEQW6g6Dgqiy74OGNaz36JBiLuHkm524xNI1UWzAoOjjjoq2ycuxTDPWLQjmVquWagSurjKrsM6XIbq6br26aVdnPG5WMcTmldumnVB4nUeH9guuwbxwnr8P2v10DHTMscgyLJ772ojDHNVYPVw97Nmm58ZxBOE1DuUcrTNBgQR9Q5iotpI1ZKBaSyrToZtPUeY7XSR2Tutf9+yUwLzKebYP64GYZ6ZqFrwVi8vNtbjmMqsxry5TGOeDgjOgcXn92vi51cveElwTkqFspLBz4loKc0QWrXZtYDtTB2OIPCF5HhEXDwv5teko6LeNjWdGWRcPx8ZnIcAadNZ4zxl8epGWD0fsGSogf3pIIlpG4HBu6Em89fQXFgi5IveQVT4LGbVxvA/nSPe8+gdJUOC4c94euf8OkvpjMCA6httG8RUVh0ikcgcbGOAmhKNt47xAeT1fnrZiHxe0sSznVl/mdSFjhKOJ1xlQvAMx6y6jU5WQ/WrWqnA9TzjUQ2mB5I2J3HBTMSEmfEj/mduwo033jgLL/dIuMrCi7GNzNboYDxjj7y2QkcMA9ZMfkT7jZK9M8Z5fFbgsvDyYOQ6dGixP0smri3r0W4rgTk3P2a28nEdJRdCKrNskDqIr2eoMm44ITwtW1yKdVZgQLWIyHcxFSPYjW2ck+3FRPAnsv/PPoTF9/X1RWMb5yPceEk0Az22XNfPVXYdro8QMQ8LS8LsmdL38XAXj3dDeOxDRsNZulloG/IyKZ0gzONBr2pnjPPQ1U+JGoed/3l5la97Mk7nxzC/SZmbVlsKDLYM1cUBdH5EwioaIusbqpOLjzN7sHWztmV0VmAhXrIlVSn/DFBRMLG5CP16br4eKysJMdaTuflNqVHWA9cIZHbCynm53/h6bl4yxWH29ZXCiyEs9qU0aOWc9K2Cajs1C8IZh5s5Pur9AF9bCuzdULXfJFRnBweBUU0sExdGVXFwaIstHpa3tvhbbi6wOJOQcch09ZRgDk9VHGsRAZmKRKpUOjRinMMFQJWNamRnp512+IY11VbOTXiriaURI2MRh8QDGS+VJ05naWtXqVaw1USz/pRgVQTmJdhih6UpwejRIgMjDCIIw/+Rpzt1/0ahO5zEIYK9ZKpWQpQZGZNwcLyLlLE1phZvNWQOvOoRb/HaZI5imGoZ+3OfiJRzLLbYYvbb3/42a0O1Kx9pgV1yr9nQo4O4gnjKhIV5G4xu+w1ON3un+vTrDYO3AZ0KRATVGG8TESlkFNoqzYC3B8cS6ZyL87vQEAwZEHMB+f9ck+t7ZiVMzI7LpC6tnnk3Bo8QXIeYdoDrEhYyDOH2MLJkfTHMbPeHAcfR4cF56vkgxdzmIymwF2ab7X2F2cJBWD3yDg488l1QRYFRPRz011BFHGU2KUEZSh0bT31mg+Wj2LjBuDHO1dlXI+iEwP2LLm8+BkFvFKUjEV9MCIxEpRQhoRiv4i1gXKAoZbsSGvK4MPFdNXxC8QdF9AioGF7+Zz3b2Y9hhTPPPDN7J627kFpgPHwQWLXvBkCnBFb0vrn+YbNVTwonDIJhmgHGwfqFJSXUwNHhdxAU1UXWMxbGPv1GmO0yObTZWlx6dTWMF9EjxXfCEDXd1XTN89VH5l/kZU5KEUq/Wl9K6SrIYHzkju55nF55EDFnP0v+p8rK9nozYrvRKoHhB0q3f9wU8BKMdK1GXQJ7PrS7LwsPr1PDQ/+cO83u5uMiubheD7WbkVPNFgmlUd8gpkxAwfBfHDbWbNdLzNY4vkN4PYP1Cu0yfi8V9h85JbSV6uvMEaIhmNmZAWSaBpQ2CAtR8D+9wvV2JuFhT9U6rplQheZc8QzRMVUF9nbI/IdMMxse2lO9DsjFEYSzRBDQtheZTb7bbIszwvqRodqXl1qUTAhpeCjNbsynJp/xstmxN3Z4bWx7ntmIUG1ljkUhUkHJTLvRhYXRxkRsDDLXW4LhKMCxxWo04mJJCYmzdjUqCuzNt822C2LouW+oyoUqHuNZtKfomOhHGysIbb7QzsKDnvUDwvqe4ffCYR0l08xKk5MWqpVCpALXNfw9mYOR9q4b/9NJU6/jM29aIybE6QLzjiCmn+NLPtWoKLCRoZTBjQl3pl5BPN5R4Z0VtKl4TSXrsAhLfBBXC1XBSwvtYGlJdGf40CLVSUpBL7UwSjTW1fPFl1KBPTnTbNlxocoXSir3G4zNxdYniGu+sNw5tLVmds/2sBAfgl5iPlaPoKhWurj8f0o0OrFqUSqwC8Ka/qEKWM+kN31DtXAd5uRIP0OYEElgzJTueHqCmSKPt8SZlRgxUVIVxeUCw5m4nu/alQpsz2vChiAw3u2qJTDaZ2ueEAKZdqxUiGQwtDJs2LBsqjuW9A5SQhXbXUVxUV1kQqGgnfwMlSkV2OjrOgRWVwkWBEbbSwIT3RXGLRGPe/vEbS43OjfYNnTo0Ozj9fVQKrBsZt98ro1KbTCMjo5eQYgbp5kYSoguAe8WhBW3tYpGaeaDzY04ipcK7JU3zIaHUol3tfC6iEsx/u8RbFAwHHovrE/MQrQltQTmjs54buDt0gilAoNJd3VMZjNkTMfYF+NgLjQGlAfTdT/CbOtQer2V4JV/IboKPgJJ9RDPD6qACI2ld3DgY8qY15VXXpkfUT8VBQbjpwch4bQ7KuzIoPKBQWT5IDPeG1udZTajNa8vCTHX8DYYDr20vRAbztvMHoZjNJ8XpqexGaoKDKY9ZrbzRWbDjjFbYlywI8w2mmB20k1mb1SfM0WIbgFT8FGKYXTRU1IxjUArXn6tKTBnxmtm9zxn9ujM7u/9LkRXUbfAhBCNI4EJkRAJTIiESGBCJEQCEyIhEpgQCZHAhEiIBCZEQiQwIRIigQmREAlMiIRIYEIkRAITIiESmBAJkcCESIgEJkRCJDAhEiKBCZEQCUyIhEhgQiREAhMiIRKYEAmRwIRIiAQmREIkMCESIoEJkRAJTIiESGBCJEQCEyIhEpgQCZHAhEiIBCZEQiQwIRIigQmREAlMiIRIYEIkRAITIiESmBAJkcCESIgEJkRCJDAhEiKBCZEQCUyIhEhgQiREAhMiIRKYEAmRwIRIiAQmREIkMCESIoEJkRAJTIiESGBCJEQCEyIhEpgQCZHAhEiIBCZEQiQwIRIigQmREAlMiIRIYEIkRAITIiESmBAJkcCESIgEJkRCJDAhEiKBCZEQCUyIhEhgQiREAhMiIRKYEAmRwIRICAK7M/8thGgxCOyu/LcQoqWY/Q9oTTmssgfksAAAAABJRU5ErkJggg==;clipPath=inset(26.85% 0% 26.85% 0%);" vertex="1" parent="1">
          <mxGeometry x="210" y="414" width="112.32" height="52" as="geometry" />
        </mxCell>
        <mxCell id="IhUaoYFLJie-6JwiWho2-57" value="Azure AI Search" style="image;aspect=fixed;html=1;points=[];align=center;fontSize=12;image=img/lib/azure2/app_services/Search_Services.svg;imageBackground=default;" vertex="1" parent="1">
          <mxGeometry x="682" y="426.88" width="68" height="49.120000000000005" as="geometry" />
        </mxCell>
      </root>
    </mxGraphModel>
  </diagram>
</mxfile>
